Patient4_TMGait_0pt6_01_right_10_EMG.mot
version=1
nRows=36
nColumns=33
inDegrees=no
endheader
time	1LAddLong	2LGlutMax	3LGlutMed	4LIliopsoas	5LSemiMemb	6LBicFemLong	7LRecFem	8LVastMed	9LVastLat	10LGasMed	11LTibAnt	12lTibPost	13LPeroneusLong	14LSol	15LExtDigLong	16LFlexDigLong	17RAddLong	18RGlutMax	19RGlutMed	20RIliopsoas	21RSemiMemb	22RBicFemLong	23RRecFem	24RVastMed	25RVastLat	26RGasMed	27RTibAnt	28RTibPost	29RPeroneusLong	30RSol	31RExtDigLong	32RFlexDigLong
11.56	0.005341	-0.063629	0.007324	-0.0177	-0.000305	-0.040741	0.11444	-0.005646	-0.055237	-0.19898	0.077667	-0.1088	-0.15533	0.22324	0.042877	-0.006866	-0.022278	0.18814	1.1395	0.051575	0.047455	0.031128	0.087891	0.19882	-0.010376	0.007629	0.44403	-0.002441	-0.24963	-0.12436	-0.001831	0.001068
11.561	-0.001984	-0.0383	-0.015869	-0.008545	-0.001526	-0.032806	0.11429	-0.005035	-0.060425	-0.15717	0.10651	-0.10681	-0.019073	0.50125	-0.10941	-0.54779	-0.023346	0.16068	0.77194	0.091095	0.014496	0.077209	0.30701	0.3035	-0.023193	0.011902	1.196	-0.002747	-0.13367	-0.11185	-0.001221	-0.029449
11.562	-0.006256	-0.068817	-0.053253	0.004578	0.006866	-0.023346	0.10071	0.00351	-0.10162	-0.10727	0.03067	0.037384	0.13779	0.18906	-0.33783	0.36835	-0.026398	0.13168	-0.016327	0.095062	-0.013428	0.08316	0.31021	0.25314	-0.042572	-0.000916	0.74753	-0.005798	-0.009766	-0.15076	-0.006409	-0.047913
11.563	-0.013885	-0.063171	-0.049286	0.021667	0.000305	0.003052	0.14435	0.00824	-0.08316	0.021973	0.068054	0.005341	0.11597	0.1384	-0.4303	0.083618	-0.044403	0.17303	-0.02121	0.02182	0.040283	0.094299	0.19943	0.27603	-0.016479	-0.000458	0.030212	-0.002136	0.15503	-0.22568	-0.005341	-0.04303
11.564	-0.010529	-0.084381	-0.005493	0.019226	-0.008087	0.014954	0.15015	0.005951	-0.072174	0.004425	0.1355	-0.036774	-0.023193	0.35675	-0.15167	-0.000305	-0.042267	0.25009	0.068512	-0.000458	0.092926	0.10239	0.20859	0.24292	-0.002441	0.003357	-0.10727	-0.001221	0.14633	-0.14511	-0.003204	-0.031891
11.565	-0.011139	-0.066986	0.020294	0.00946	-0.017853	0.017395	0.19043	0.010376	-0.097046	-0.095673	0.20218	-0.03891	-0.094604	0.3981	0.081329	-0.28717	-0.025787	0.23651	0.33066	-0.02655	0.079498	0.079651	0.13596	0.14771	-0.029144	-0.000916	-0.7991	-0.003357	0.14236	-0.035248	-0.007019	-0.02182
11.566	-0.002289	-0.13428	-0.016632	0.009155	-0.008545	-0.020447	0.10864	0.012512	-0.15869	-0.12573	0.043488	-0.037537	0.08194	0.30807	0.087433	-0.69183	-0.016632	0.25604	0.10757	-0.048218	0.069275	0.067444	-0.027771	0.063782	-0.029449	-0.000916	-0.53009	-0.006256	0.027008	-0.024109	-0.006561	-0.022583
11.567	0.005188	-0.13062	-0.023956	0.015106	0.011444	-0.033417	0.018158	0.015411	-0.13473	-0.1445	0.57251	-0.011749	0.11734	0.35339	0.30258	-0.31433	-0.030823	0.23499	0.050049	-0.069122	0.046692	0.050507	-0.26916	0.059662	-0.031433	-0.007019	-0.23895	-0.006561	0.010376	0.057373	-0.007629	-0.020905
11.568	-0.000305	-0.10651	-0.039063	0.000305	0.002289	-0.041046	0.077362	0.006561	-0.05249	-0.09552	0.2742	-0.00946	0.045013	0.31815	0.52872	0.95596	-0.02243	0.25589	-0.074768	-0.10071	0.028076	0.041809	-0.17777	0.072784	-0.038452	-0.010223	0.11658	-0.006866	-0.074005	0.10117	-0.002594	-0.019684
11.569	-0.00061	-0.081482	-0.050964	-0.001831	0.005188	-0.047913	0.13962	-0.005188	0.062103	-0.040741	-0.024719	0.002899	-0.016022	0.2095	0.52261	1.3855	-0.018616	0.2179	-0.036926	-0.07309	0.02243	0.047913	-0.18753	0.061951	-0.033875	-0.016937	-0.12589	-0.005188	-0.0914	0.22003	-0.009003	-0.025024
11.57	0.002289	-0.087891	-0.046082	0.007019	0.005035	-0.03418	0.15137	0.011444	-0.02243	-0.064392	-0.20279	-0.009308	0.058289	0.16037	0.51102	-0.40375	-0.017548	0.19318	-0.032806	0.031586	0.016022	0.01709	-0.2359	0.048523	-0.042267	-0.00946	-0.34332	-0.005493	-0.20187	0.21774	-0.007019	-0.018768
11.571	0.005493	-0.1329	0.000153	0.007477	0.00351	-0.029602	0.12741	0.012665	0.000153	-0.1387	-0.47836	-0.002747	0.15884	0.50049	-0.78461	0.69916	-0.018463	0.1474	-0.14618	0.030365	0.015106	-0.008545	-0.23407	0.079193	-0.037079	-0.004272	-0.34409	-0.009613	-0.39185	0.14343	-0.000916	-0.0177
11.572	0.009613	-0.15228	0.029449	0	0.006256	-0.013123	0.22415	0.011292	-0.011902	-0.084686	-0.33661	-0.011749	0.056458	0.35446	-0.6926	-0.8934	-0.001373	0.096283	-0.20004	-0.014191	0.023346	-0.001221	-0.16205	0.002747	-0.04303	-0.009766	-0.22583	-0.002747	-0.21652	0.20447	-0.005341	-0.015106
11.573	0.005493	-0.13275	0.00885	-0.003967	0.006104	-0.020905	0.12009	0.007019	0.076141	-0.004425	-0.15366	-0.00824	0.019531	0.30914	-0.51559	-1.2398	0.010529	0.092926	-0.032043	0.023651	0.039673	-0.010223	-0.040131	-0.048523	-0.06424	-0.005493	-0.14694	-0.00412	0.60196	0.14343	-0.005798	-0.010376
11.574	-0.001678	-0.13367	-0.014496	-0.001678	0.001221	-0.000916	0.16907	0.012817	0.12238	-0.011902	-0.17227	-0.00351	0.099792	0.080261	-0.059967	0.080719	0.010529	0.035095	0.076599	0.067444	0.040588	-0.011139	0.082092	-0.08194	-0.060577	0.000916	-0.060272	-0.000153	0.62897	0.003815	-0.005798	-0.014343
11.575	0.008698	-0.15121	0.00412	-0.002289	0.009308	-0.022583	0.20386	0.006256	0.14542	0.041962	0.038452	-0.01236	0.023193	-0.14679	-0.5246	1.0579	0.032196	0.03952	0.11734	0.10559	0.030518	-0.013275	0.11215	-0.12985	-0.067291	0.000458	-0.054779	-0.00885	0.26977	-0.062103	-0.002594	-0.012054
11.576	-0.005798	-0.15228	0.007172	-0.004425	0.004425	-0.007324	0.14648	-0.002289	0.13123	0.11765	0.014954	-0.001068	0.005646	-0.4303	-0.51086	-0.69366	0.077209	0.069733	-0.049744	0.084076	0	0.04303	0.11078	-0.13916	-0.073853	-0.012665	0.054474	-0.003052	-0.25162	0.000763	-0.005341	-0.018005
11.577	0.000305	-0.17517	-0.003815	0.006561	0.008392	-0.014191	0.036163	-0.001678	0.10223	0.06897	-0.041809	0.01709	0.10468	-0.58212	-0.42572	0.47165	0.1088	0.12375	-0.068207	0.077667	-0.048676	0.046234	0.1004	-0.17212	-0.066376	-0.006409	0.15564	-0.006714	-0.2861	-0.002899	-0.005188	-0.014496
11.578	0.007629	-0.21851	-0.066833	0.029907	0.006866	-0.020905	0.017395	0.001221	0.014191	-0.00824	0.03006	-0.001068	0.070496	-0.77652	-0.17212	0.37445	0.092773	0.093536	-0.10132	0.070648	-0.10437	0.048065	0.12665	-0.16525	-0.044556	-0.001984	0.12711	-0.002289	-0.19959	-0.04837	-0.004578	-0.017853
11.579	0.006866	-0.2385	-0.084076	0.023956	0.009308	-0.008698	0.079498	-0.004578	-0.27252	-0.112	0.08316	0.045319	0.012665	-0.80322	0.14313	0.14282	0.073547	0.11017	0.084991	0.10162	-0.12665	0.050354	0.14923	-0.15656	-0.042572	0.004272	0.092773	-0.00351	-0.14114	-0.062561	-0.005798	-0.014343
11.58	0.009766	-0.22919	-0.020905	0.012054	0.010529	-0.00412	0.13443	0.010986	-0.22736	-0.27054	-0.095978	-0.050659	0.049896	-0.67429	0.15976	-0.21744	0.03891	0.21164	0.09491	0.057678	-0.1091	0.043945	0.1709	-0.1709	-0.02655	-0.007477	-0.03952	-0.001526	-0.097504	-0.035858	0	-0.012512
11.581	-0.009308	-0.23239	0.065613	-0.005493	0.007019	-0.038757	0.18097	0.003967	-0.30762	-0.21637	-0.27359	-0.019836	0.049896	-0.5925	0.29755	-0.092163	0.021973	0.29297	-0.16403	-0.073547	0.088196	0.061798	0.18158	-0.14526	-0.018005	-0.006866	-0.067596	-0.006409	-0.040588	-0.071411	-0.00473	-0.014648
11.582	-0.001221	-0.25513	0.084991	-0.006714	0.00473	-0.016785	0.16373	0.011902	-0.19821	-0.029602	-0.23071	-0.030518	-0.0177	-0.45578	0.014801	0.1355	0.012665	0.38391	-0.34958	-0.12238	0.23392	0.045166	0.065002	-0.11429	-0.02655	-0.007782	-0.039215	-0.00473	-0.09201	-0.035553	-0.004578	-0.011749
11.583	-0.001984	-0.23682	0.083466	0.002747	0.00351	-0.024872	0.13031	0.020599	-0.18402	-0.052643	-0.18112	-0.063934	0.047455	-0.3244	0.21515	-0.007324	-0.001526	0.5246	-0.34058	-0.086517	0.10239	0.014801	-0.087433	-0.10422	-0.04364	-0.005646	0.014954	0.000916	-0.12482	0.009155	-0.007019	-0.015411
11.584	0.006714	-0.21378	0.010529	0.006866	-0.004272	-0.046234	0.1442	0.01358	-0.15518	-0.073547	0.17227	-0.13626	0.081482	-0.12848	0.70862	-0.12421	0.009155	0.65353	0.24506	-0.12482	0.032043	0.00412	-0.18845	-0.049286	-0.022736	-0.007324	0.082245	-0.004883	-0.11429	0.024719	-0.005341	-0.014954
11.585	0.006256	-0.17593	0.045929	0.00885	0.005035	-0.043945	0.14053	-0.018616	-0.12238	0.036469	0.45548	-0.045624	-0.031586	0.27084	0.77759	-0.14023	0.003662	0.80063	0.42313	-0.098572	0.021667	0.002594	-0.24796	-0.083771	-0.011749	-0.007324	0.059204	-0.000916	0.031128	-0.028076	-0.00351	-0.009308
11.586	0.008545	-0.19226	0.083771	0.002136	0.006409	-0.017853	0.11887	-0.024109	-0.13763	0.16235	0.18906	0.18677	-0.044861	0.11322	-0.008087	-0.15808	-0.001373	0.85831	-0.050812	-0.061493	0.063477	-0.006561	-0.24384	-0.011749	0.011749	-0.011139	0.074005	-0.006256	0.051727	-0.029144	-0.004883	-0.002899
11.587	0.007629	-0.16678	0.069122	0.007172	0.001068	-0.001526	0.15717	-0.000458	-0.11719	0.12619	-0.025177	0.055237	-0.002899	-0.1265	-0.26947	-0.17593	-0.016327	0.81619	0.14511	-0.039673	0.05661	-0.005646	-0.18219	0.091705	0.003052	-0.001221	0.073395	0.007935	0.00946	-0.026703	-0.002899	0.001678
11.588	0.006256	-0.18417	-0.007782	-0.002747	0.000153	-0.007782	0.16007	0.020447	-0.12711	-0.093079	-0.056	-0.1619	0.050049	-0.27618	-0.12054	-0.052338	-0.031738	0.65414	0.19455	0.015717	0.034332	0.021515	-0.25589	0.023651	0.009308	-0.004272	0.088806	-0.002594	-0.070801	-0.055847	-0.005188	-0.003357
11.589	0.01236	-0.17151	-0.027466	-0.005188	-0.000916	-0.013733	0.13565	0.019379	-0.11963	-0.41412	-0.018005	0.018158	0.059814	-0.1326	-0.04364	0.042419	-0.024261	0.62149	0.032959	0.010376	0.018921	-0.004578	-0.21866	0.006409	-0.011597	-0.010071	0.060425	0.00946	-0.05249	-0.031891	-0.005188	-0.001831
11.59	0.004883	-0.1741	-0.015106	0.014801	-0.003052	-0.036316	0.24887	0.006561	-0.15778	-0.24139	0.008087	0.062866	0.075989	-0.10864	-0.27039	0.01709	-0.030518	0.60501	-0.023193	0.004578	-0.059509	0.064392	-0.13077	-0.034332	0.009003	-0.009308	0.04425	-0.002441	-0.010834	-0.050964	-0.008392	0.000458
11.591	0.012207	-0.17364	0.001221	0.017242	0.003967	-0.056458	0.23956	0.005035	-0.22003	0.021515	0.000458	0.11551	0.033569	-0.13809	-0.19287	0.016174	-0.0354	0.60486	-0.17059	0.056915	-0.043182	0.096893	-0.06958	-0.055542	-0.016785	-0.001831	0.06546	-0.002136	-0.054169	-0.073547	-0.006256	-0.005188
11.592	0.006866	-0.1358	-0.077362	0.010681	0.007324	-0.049591	0.15274	0.007019	-0.25253	0.2327	-0.042725	-0.084534	-0.023346	-0.29663	-0.044861	0.041962	-0.043793	0.51117	-0.46295	0.11475	0.023956	0.097198	-0.099792	-0.034637	-0.026703	0.001373	0.08255	-0.00061	-0.16373	-0.090637	-0.004883	-0.007782
11.593	0.005951	-0.12543	-0.14526	0.009918	0.01297	-0.056	-0.030365	0.011749	-0.2124	0.3688	-0.059662	0.29617	-0.1239	-0.26657	0.3566	0.036316	-0.043335	0.4097	-0.19363	0.10162	0.027618	0.11963	-0.080109	-0.041962	0.001526	0.001526	0.099182	-0.006256	-0.19882	-0.089417	-0.005493	-0.004578
11.594	0.011749	-0.075531	-0.053558	0.018158	0.016174	-0.024719	-0.046387	-0.001984	-0.17639	0.40268	-0.034027	-0.49072	-0.1004	0.13473	0.65735	-0.29831	0.028534	0.30731	0.35797	0.091553	0.019073	0.096283	-0.087128	-0.067139	-0.010376	0.006409	0.11581	-0.003204	-0.19959	-0.090637	-0.013428	0.000153
11.595	0.00351	-0.077972	0.07782	0.018158	0.007019	0.027618	-0.013428	0.005798	-0.15213	0.74692	0.095215	-0.17105	0.018616	0.29022	0.016327	0.14374	0.06897	0.28625	0.29053	0.043793	0.024872	0.074615	-0.074158	-0.063171	-0.015411	0.006256	0.11902	0.001831	-0.22339	-0.07019	-0.004883	-0.011444
